# Blender v3.2.2 OBJ File: 'stress_level_bar.blend'
# www.blender.org
mtllib stress_level_bar_part1.mtl
o Cube_Cube.001
v -0.001129 -0.006246 0.147770
v -0.002854 -0.007971 0.144072
v -0.001129 0.006246 0.147770
v -0.002854 0.007971 0.144072
v -0.001129 -0.006246 -0.147770
v -0.002854 -0.007971 -0.144072
v -0.001129 0.006246 -0.147770
v -0.002854 0.007971 -0.144072
v 0.001129 -0.006246 0.147770
v 0.002854 -0.007971 0.144072
v 0.001129 0.006246 0.147770
v 0.002854 0.007971 0.144072
v 0.001129 -0.006246 -0.147770
v 0.002854 -0.007971 -0.144072
v 0.002854 0.007971 -0.144072
v 0.001129 0.006246 -0.147770
vt 0.402049 0.825541
vt 0.597951 0.825541
vt 0.597951 0.924459
vt 0.402049 0.924459
vt 0.375000 0.503128
vt 0.625000 0.503128
vt 0.625000 0.746872
vt 0.375000 0.746872
vt 0.875000 0.503128
vt 0.875000 0.746872
vt 0.375000 0.003128
vt 0.625000 0.003128
vt 0.625000 0.246872
vt 0.375000 0.246872
vt 0.402049 0.325541
vt 0.597951 0.325541
vt 0.597951 0.424459
vt 0.402049 0.424459
vt 0.625000 1.000000
vt 0.375000 1.000000
vt 0.375000 0.500000
vt 0.375000 0.250000
vt 0.625000 0.250000
vt 0.625000 0.500000
vt 0.375000 0.750000
vt 0.625000 0.750000
vt 0.125000 0.503128
vt 0.125000 0.746872
vn 0.0000 0.0000 1.0000
vn 1.0000 0.0000 0.0000
vn 0.0000 1.0000 0.0000
vn -1.0000 0.0000 0.0000
vn 0.0000 0.0000 -1.0000
vn -0.9062 0.0000 0.4227
vn -0.9062 0.0000 -0.4227
vn 0.0000 -0.9062 -0.4227
vn 0.0000 0.9062 -0.4227
vn 0.9062 0.0000 -0.4227
vn 0.9062 0.0000 0.4227
vn 0.0000 -0.9062 0.4227
vn 0.0000 0.9062 0.4227
vn 0.0000 -1.0000 0.0000
usemtl None
s off
f 9/1/1 11/2/1 3/3/1 1/4/1
f 14/5/2 15/6/2 12/7/2 10/8/2
f 15/6/3 8/9/3 4/10/3 12/7/3
f 2/11/4 4/12/4 8/13/4 6/14/4
f 5/15/5 7/16/5 16/17/5 13/18/5
f 1/4/6 3/3/6 4/19/6 2/20/6
f 7/16/7 5/15/7 6/14/7 8/13/7
f 14/21/8 6/22/8 5/15/8 13/18/8
f 8/23/9 15/24/9 16/17/9 7/16/9
f 15/6/10 14/5/10 13/18/10 16/17/10
f 11/2/11 9/1/11 10/8/11 12/7/11
f 2/20/12 10/25/12 9/1/12 1/4/12
f 12/26/13 4/19/13 3/3/13 11/2/13
f 6/27/14 14/5/14 10/8/14 2/28/14
