# Blender v3.2.2 OBJ File: 'stress_level_bar.blend'
# www.blender.org
mtllib stress_level_bar_part1.mtl
o Cube_Cube.001
v -0.001129 -0.006246 0.150000
v -0.002854 -0.007971 0.146246
v -0.001129 0.006246 0.150000
v -0.002854 0.007971 0.146246
v -0.001129 -0.006246 -0.150000
v -0.002854 -0.007971 -0.146246
v -0.001129 0.006246 -0.150000
v -0.002854 0.007971 -0.146246
v 0.001129 -0.006246 0.150000
v 0.002854 -0.007971 0.146246
v 0.001129 0.006246 0.150000
v 0.002854 0.007971 0.146246
v 0.001129 -0.006246 -0.150000
v 0.002854 -0.007971 -0.146246
v 0.002854 0.007971 -0.146246
v 0.001129 0.006246 -0.150000
v -0.002854 -0.007971 0.127966
v -0.002854 -0.007971 0.109685
v -0.002854 -0.007971 0.091404
v -0.002854 -0.007971 0.073123
v -0.002854 -0.007971 0.054842
v -0.002854 -0.007971 0.036562
v -0.002854 -0.007971 0.018281
v -0.002854 -0.007971 -0.000000
v -0.002854 -0.007971 -0.018281
v -0.002854 -0.007971 -0.036562
v -0.002854 -0.007971 -0.054842
v -0.002854 -0.007971 -0.073123
v -0.002854 -0.007971 -0.091404
v -0.002854 -0.007971 -0.109685
v -0.002854 -0.007971 -0.127966
v 0.002854 -0.007971 -0.127966
v 0.002854 -0.007971 -0.109685
v 0.002854 -0.007971 -0.091404
v 0.002854 -0.007971 -0.073123
v 0.002854 -0.007971 -0.054842
v 0.002854 -0.007971 -0.036562
v 0.002854 -0.007971 -0.018281
v 0.002854 -0.007971 0.000000
v 0.002854 -0.007971 0.018281
v 0.002854 -0.007971 0.036562
v 0.002854 -0.007971 0.054842
v 0.002854 -0.007971 0.073123
v 0.002854 -0.007971 0.091404
v 0.002854 -0.007971 0.109685
v 0.002854 -0.007971 0.127966
v -0.003638 0.007700 0.128485
v -0.003638 0.007700 0.110204
v -0.002854 0.007971 0.091404
v -0.002854 0.007971 0.073123
v -0.002854 0.007971 0.054842
v -0.002854 0.007971 0.036562
v -0.002854 0.007971 0.018281
v -0.002854 0.007971 -0.000000
v -0.002854 0.007971 -0.018281
v -0.002854 0.007971 -0.036562
v -0.002854 0.007971 -0.054842
v -0.002854 0.007971 -0.073123
v -0.002854 0.007971 -0.091404
v -0.002854 0.007971 -0.109685
v -0.002854 0.007971 -0.127966
v 0.002071 0.007700 0.128485
v 0.002071 0.007700 0.110204
v 0.002854 0.007971 0.091404
v 0.002854 0.007971 0.073123
v 0.002854 0.007971 0.054842
v 0.002854 0.007971 0.036562
v 0.002854 0.007971 0.018281
v 0.002854 0.007971 -0.000000
v 0.002854 0.007971 -0.018281
v 0.002854 0.007971 -0.036562
v 0.002854 0.007971 -0.054842
v 0.002854 0.007971 -0.073123
v 0.002854 0.007971 -0.091404
v 0.002854 0.007971 -0.109685
v 0.002854 0.007971 -0.127966
v -0.002854 -0.007971 0.109685
v -0.002854 -0.007971 0.091404
v 0.002854 -0.007971 0.091404
v 0.002854 -0.007971 0.109685
vt 0.402049 0.825541
vt 0.597951 0.825541
vt 0.597951 0.924459
vt 0.402049 0.924459
vt 0.375000 0.731638
vt 0.625000 0.731638
vt 0.625000 0.746872
vt 0.375000 0.746872
vt 0.875000 0.731638
vt 0.875000 0.746872
vt 0.375000 0.231638
vt 0.625000 0.231638
vt 0.625000 0.246872
vt 0.375000 0.246872
vt 0.402049 0.325541
vt 0.597951 0.325541
vt 0.597951 0.424459
vt 0.402049 0.424459
vt 0.625000 1.000000
vt 0.375000 1.000000
vt 0.375000 0.500000
vt 0.375000 0.250000
vt 0.625000 0.250000
vt 0.625000 0.500000
vt 0.625000 0.503128
vt 0.375000 0.503128
vt 0.375000 0.750000
vt 0.625000 0.750000
vt 0.125000 0.731638
vt 0.125000 0.746872
vt 0.125000 0.503128
vt 0.375000 0.518362
vt 0.125000 0.518362
vt 0.375000 0.533596
vt 0.125000 0.533596
vt 0.375000 0.548830
vt 0.125000 0.548830
vt 0.375000 0.564064
vt 0.125000 0.564064
vt 0.375000 0.579298
vt 0.125000 0.579298
vt 0.375000 0.594532
vt 0.125000 0.594532
vt 0.375000 0.609766
vt 0.125000 0.609766
vt 0.375000 0.625000
vt 0.125000 0.625000
vt 0.375000 0.640234
vt 0.125000 0.640234
vt 0.375000 0.655468
vt 0.125000 0.655468
vt 0.375000 0.670702
vt 0.125000 0.670702
vt 0.375000 0.685936
vt 0.125000 0.685936
vt 0.375000 0.701170
vt 0.125000 0.701170
vt 0.375000 0.716404
vt 0.375000 0.716404
vt 0.375000 0.701170
vt 0.125000 0.716404
vt 0.375000 0.003128
vt 0.625000 0.003128
vt 0.625000 0.018362
vt 0.375000 0.018362
vt 0.625000 0.033596
vt 0.375000 0.033596
vt 0.625000 0.048830
vt 0.375000 0.048830
vt 0.625000 0.064064
vt 0.375000 0.064064
vt 0.625000 0.079298
vt 0.375000 0.079298
vt 0.625000 0.094532
vt 0.375000 0.094532
vt 0.625000 0.109766
vt 0.375000 0.109766
vt 0.625000 0.125000
vt 0.375000 0.125000
vt 0.625000 0.140234
vt 0.375000 0.140234
vt 0.625000 0.155468
vt 0.375000 0.155468
vt 0.625000 0.170702
vt 0.375000 0.170702
vt 0.625000 0.185936
vt 0.375000 0.185936
vt 0.625000 0.201170
vt 0.375000 0.201170
vt 0.625000 0.216404
vt 0.375000 0.216404
vt 0.875000 0.503128
vt 0.875000 0.518362
vt 0.625000 0.518362
vt 0.875000 0.533596
vt 0.625000 0.533596
vt 0.875000 0.548830
vt 0.625000 0.548830
vt 0.875000 0.564064
vt 0.625000 0.564064
vt 0.875000 0.579298
vt 0.625000 0.579298
vt 0.875000 0.594532
vt 0.625000 0.594532
vt 0.875000 0.609766
vt 0.625000 0.609766
vt 0.875000 0.625000
vt 0.625000 0.625000
vt 0.875000 0.640234
vt 0.625000 0.640234
vt 0.875000 0.655468
vt 0.625000 0.655468
vt 0.875000 0.670702
vt 0.625000 0.670702
vt 0.875000 0.685936
vt 0.625000 0.685936
vt 0.875000 0.701170
vt 0.625000 0.701170
vt 0.875000 0.716404
vt 0.625000 0.716404
vt 0.125000 0.701170
vt 0.125000 0.716404
vt 0.375000 0.048830
vt 0.375000 0.033596
vn 0.0000 0.0000 1.0000
vn 0.9994 0.0251 -0.0219
vn 0.0000 0.9999 -0.0153
vn -1.0000 0.0000 0.0000
vn 0.0000 0.0000 -1.0000
vn -0.9086 0.0000 0.4176
vn -0.9086 0.0000 -0.4176
vn 0.0000 -0.9086 -0.4176
vn 0.0000 0.9086 -0.4176
vn 0.9086 0.0000 -0.4176
vn 0.9086 0.0000 0.4176
vn 0.0000 -0.9086 0.4176
vn 0.0000 0.9086 0.4176
vn 0.0000 -1.0000 0.0000
vn -0.9994 -0.0251 0.0219
vn -0.9988 -0.0499 0.0000
vn -0.9995 -0.0244 -0.0213
vn 0.0000 1.0000 0.0000
vn 0.0000 0.9999 0.0144
vn 1.0000 0.0000 0.0000
vn 0.9995 0.0244 0.0213
vn 0.9988 0.0499 0.0000
usemtl None
s off
f 9/1/1 11/2/1 3/3/1 1/4/1
f 46/5/2 62/6/2 12/7/2 10/8/2
f 62/6/3 47/9/3 4/10/3 12/7/3
f 31/11/4 61/12/4 8/13/4 6/14/4
f 5/15/5 7/16/5 16/17/5 13/18/5
f 1/4/6 3/3/6 4/19/6 2/20/6
f 7/16/7 5/15/7 6/14/7 8/13/7
f 14/21/8 6/22/8 5/15/8 13/18/8
f 8/23/9 15/24/9 16/17/9 7/16/9
f 15/25/10 14/26/10 13/18/10 16/17/10
f 11/2/11 9/1/11 10/8/11 12/7/11
f 2/20/12 10/27/12 9/1/12 1/4/12
f 12/28/13 4/19/13 3/3/13 11/2/13
f 17/29/14 46/5/14 10/8/14 2/30/14
f 6/31/14 14/26/14 32/32/14 31/33/14
f 31/33/14 32/32/14 33/34/14 30/35/14
f 30/35/14 33/34/14 34/36/14 29/37/14
f 29/37/14 34/36/14 35/38/14 28/39/14
f 28/39/14 35/38/14 36/40/14 27/41/14
f 27/41/14 36/40/14 37/42/14 26/43/14
f 26/43/14 37/42/14 38/44/14 25/45/14
f 25/45/14 38/44/14 39/46/14 24/47/14
f 24/47/14 39/46/14 40/48/14 23/49/14
f 23/49/14 40/48/14 41/50/14 22/51/14
f 22/51/14 41/50/14 42/52/14 21/53/14
f 21/53/14 42/52/14 43/54/14 20/55/14
f 20/55/14 43/54/14 44/56/14 19/57/14
f 44/56/1 45/58/1 80/59/1 79/60/1
f 18/61/14 45/58/14 46/5/14 17/29/14
f 2/62/15 4/63/15 47/64/15 17/65/15
f 17/65/16 47/64/16 48/66/16 18/67/16
f 18/67/17 48/66/17 49/68/17 19/69/17
f 19/69/4 49/68/4 50/70/4 20/71/4
f 20/71/4 50/70/4 51/72/4 21/73/4
f 21/73/4 51/72/4 52/74/4 22/75/4
f 22/75/4 52/74/4 53/76/4 23/77/4
f 23/77/4 53/76/4 54/78/4 24/79/4
f 24/79/4 54/78/4 55/80/4 25/81/4
f 25/81/4 55/80/4 56/82/4 26/83/4
f 26/83/4 56/82/4 57/84/4 27/85/4
f 27/85/4 57/84/4 58/86/4 28/87/4
f 28/87/4 58/86/4 59/88/4 29/89/4
f 29/89/4 59/88/4 60/90/4 30/91/4
f 30/91/4 60/90/4 61/12/4 31/11/4
f 15/25/18 8/92/18 61/93/18 76/94/18
f 76/94/18 61/93/18 60/95/18 75/96/18
f 75/96/18 60/95/18 59/97/18 74/98/18
f 74/98/18 59/97/18 58/99/18 73/100/18
f 73/100/18 58/99/18 57/101/18 72/102/18
f 72/102/18 57/101/18 56/103/18 71/104/18
f 71/104/18 56/103/18 55/105/18 70/106/18
f 70/106/18 55/105/18 54/107/18 69/108/18
f 69/108/18 54/107/18 53/109/18 68/110/18
f 68/110/18 53/109/18 52/111/18 67/112/18
f 67/112/18 52/111/18 51/113/18 66/114/18
f 66/114/18 51/113/18 50/115/18 65/116/18
f 65/116/18 50/115/18 49/117/18 64/118/18
f 64/118/19 49/117/19 48/119/19 63/120/19
f 63/120/18 48/119/18 47/9/18 62/6/18
f 14/26/20 15/25/20 76/94/20 32/32/20
f 32/32/20 76/94/20 75/96/20 33/34/20
f 33/34/20 75/96/20 74/98/20 34/36/20
f 34/36/20 74/98/20 73/100/20 35/38/20
f 35/38/20 73/100/20 72/102/20 36/40/20
f 36/40/20 72/102/20 71/104/20 37/42/20
f 37/42/20 71/104/20 70/106/20 38/44/20
f 38/44/20 70/106/20 69/108/20 39/46/20
f 39/46/20 69/108/20 68/110/20 40/48/20
f 40/48/20 68/110/20 67/112/20 41/50/20
f 41/50/20 67/112/20 66/114/20 42/52/20
f 42/52/20 66/114/20 65/116/20 43/54/20
f 43/54/20 65/116/20 64/118/20 44/56/20
f 44/56/21 64/118/21 63/120/21 45/58/21
f 45/58/22 63/120/22 62/6/22 46/5/22
f 78/121/14 79/60/14 80/59/14 77/122/14
f 19/57/1 44/56/1 79/60/1 78/121/1
f 18/67/1 19/69/1 78/123/1 77/124/1
f 45/58/1 18/61/1 77/122/1 80/59/1
